# xmcd
#
# Track frame offsets:
#	150
#	13322
#	21647
#	37609
#	48834
#	55028
#	67869
#	78771
#	88519
#	98874
#	112076
#	124770
#	136651
#	150262
#	163722
#	176075
#	190470
#	201562
#	215590
#	230320
#
# Disc length: 3211 seconds
#
# Revision: 1
# Processed by: cddbd v1.5.2PL0 Copyright (c) Steve Scherf et al.
# Submitted via: audiograbber 1.83.01
#
DISCID=070c8914
DTITLE=Various Artist - The Very Best Of Country
DYEAR=1900
DGENRE=
TTITLE0=Wanted Man
TTITLE1=Things To Remember
TTITLE2=Tulsa Turnaround
TTITLE3=It Wasn´t God Who Made Honky Tonk Angels
TTITLE4=Singing My Song
TTITLE5=High Noon
TTITLE6=Oh Lonesome Me
TTITLE7=Six Days On The Road
TTITLE8=White Lightning
TTITLE9=Do You Remember These
TTITLE10=Let It Rain Let Her Cry
TTITLE11=Walking The Floor Over You
TTITLE12=Tennesee Waltz
TTITLE13=Smoke Smoke Smoke
TTITLE14=These Boots Are Made For Walki
TTITLE15=I Am So Lonesome
TTITLE16=King Of The Road
TTITLE17=Week In A Country Jail
TTITLE18=A Good Year For The Roses
TTITLE19=Travelin´ Man
EXTD=
EXTT0=
EXTT1=
EXTT2=
EXTT3=
EXTT4=
EXTT5=
EXTT6=
EXTT7=
EXTT8=
EXTT9=
EXTT10=
EXTT11=
EXTT12=
EXTT13=
EXTT14=
EXTT15=
EXTT16=
EXTT17=
EXTT18=
EXTT19=
PLAYORDER=
